HIERARCHY
ROOT joint_Root
{
	OFFSET 0.0 0.0 0.0
	CHANNELS 6 Xposition Yposition Zposition Zrotation Xrotation Yrotation 
	JOINT Hips
	{
		OFFSET -0.726466 93.3139 -2.00062
		CHANNELS 6 Xposition Yposition Zposition Zrotation Xrotation Yrotation 
		JOINT Spine
		{
			OFFSET 15.7357 0.0 0.0
			CHANNELS 6 Xposition Yposition Zposition Zrotation Xrotation Yrotation 
			JOINT Chest
			{
				OFFSET 8.98455 -0.406207 0.0
				CHANNELS 6 Xposition Yposition Zposition Zrotation Xrotation Yrotation 
				JOINT Neck
				{
					OFFSET 16.3773 0.0 0.0
					CHANNELS 6 Xposition Yposition Zposition Zrotation Xrotation Yrotation 
					JOINT Head
					{
						OFFSET 6.45672 0.0 0.0
						CHANNELS 6 Xposition Yposition Zposition Zrotation Xrotation Yrotation 
						End Site
						{
							OFFSET 0.0 0.0 0.0
						}
					}
				}
				JOINT Shoulder_L
				{
					OFFSET 12.9942 -0.242716 4.98039
					CHANNELS 6 Xposition Yposition Zposition Zrotation Xrotation Yrotation 
					JOINT UpperArm_L
					{
						OFFSET 5.34809 0.0 0.0
						CHANNELS 6 Xposition Yposition Zposition Zrotation Xrotation Yrotation 
						JOINT LowerArm_L
						{
							OFFSET 24.3286 1.87007e-05 0.0
							CHANNELS 6 Xposition Yposition Zposition Zrotation Xrotation Yrotation 
							JOINT Hand_L
							{
								OFFSET 22.2916 0.0 0.0
								CHANNELS 6 Xposition Yposition Zposition Zrotation Xrotation Yrotation 
								End Site
								{
									OFFSET 0.0 0.0 0.0
								}
							}
						}
					}
				}
				JOINT Shoulder_R
				{
					OFFSET 12.9945 -0.242716 -4.98039
					CHANNELS 6 Xposition Yposition Zposition Zrotation Xrotation Yrotation 
					JOINT UpperArm_R
					{
						OFFSET -5.34813 0.0 0.0
						CHANNELS 6 Xposition Yposition Zposition Zrotation Xrotation Yrotation 
						JOINT LowerArm_R
						{
							OFFSET -24.3289 0.000322201 0.0
							CHANNELS 6 Xposition Yposition Zposition Zrotation Xrotation Yrotation 
							JOINT Hand_R
							{
								OFFSET -22.2915 -0.000108084 0.0
								CHANNELS 6 Xposition Yposition Zposition Zrotation Xrotation Yrotation 
								End Site
								{
									OFFSET 0.0 0.0 0.0
								}
							}
						}
					}
				}
			}
		}
		JOINT UpperLeg_L
		{
			OFFSET -2.19248 -6.46944 0.0
			CHANNELS 6 Xposition Yposition Zposition Zrotation Xrotation Yrotation 
			JOINT LowerLeg_L
			{
				OFFSET 39.0811 0.0 -1.23785e-05
				CHANNELS 6 Xposition Yposition Zposition Zrotation Xrotation Yrotation 
				JOINT Foot_L
				{
					OFFSET 40.9854 0.0 -1.26872e-05
					CHANNELS 6 Xposition Yposition Zposition Zrotation Xrotation Yrotation 
					JOINT Toes_L
					{
						OFFSET 11.7543 0.0 0.0
						CHANNELS 6 Xposition Yposition Zposition Zrotation Xrotation Yrotation 
						End Site
						{
							OFFSET 0.0 0.0 0.0
						}
					}
				}
			}
		}
		JOINT UpperLeg_R
		{
			OFFSET -2.19251 6.46944 0.0
			CHANNELS 6 Xposition Yposition Zposition Zrotation Xrotation Yrotation 
			JOINT LowerLeg_R
			{
				OFFSET -39.0811 -0.00228153 -0.0401928
				CHANNELS 6 Xposition Yposition Zposition Zrotation Xrotation Yrotation 
				JOINT Foot_R
				{
					OFFSET -40.9854 0.0 0.0
					CHANNELS 6 Xposition Yposition Zposition Zrotation Xrotation Yrotation 
					JOINT Toes_R
					{
						OFFSET -11.7543 0.0 0.0
						CHANNELS 6 Xposition Yposition Zposition Zrotation Xrotation Yrotation 
						End Site
						{
							OFFSET 0.0 0.0 0.0
						}
					}
				}
			}
		}
	}
}
MOTION
Frames:	8
Frame Time:	0.0333333
0.000000 0.000000 0.000000 0.000000 0.000000 -0.000000 5.613630 91.102700 -515.018000 85.575900 9.700880 -3.672100 15.735700 0.000005 -0.000001 69.939900 83.741200 -67.612200 8.984550 -0.406207 -0.000000 4.094880 -4.361740 4.808090 16.377300 -0.000001 -0.000001 0.160093 -5.275150 2.888500 6.456720 -0.000001 -0.000000 1.477290 -2.549600 -1.562370 12.994200 -0.242716 4.980390 -89.719300 -0.985222 -74.093700 5.348090 -0.000007 -0.000001 -52.800500 24.377800 -26.468000 24.328600 0.000019 0.000005 2.828750 4.003980 -35.278000 22.291600 -0.000001 0.000005 10.645800 5.530300 -7.812760 12.994500 -0.242716 -4.980390 87.807200 6.174310 -70.403800 -5.348130 -0.000001 -0.000004 -59.550000 8.075900 1.337740 -24.328900 0.000322 -0.000009 1.228730 13.582000 -5.223980 -22.291500 -0.000108 -0.000004 16.957600 5.231620 1.910020 -2.192480 -6.469440 -0.000000 -170.607000 -24.895300 6.798580 39.081100 -0.000007 -0.000012 -0.029984 0.135542 12.473600 40.985400 -0.000006 -0.000013 -5.393080 -2.385220 -69.641100 11.754300 -0.000000 0.000003 -0.838748 -1.030220 -17.727500 -2.192510 6.469440 -0.000001 -173.763000 17.788600 150.674000 -39.081100 -0.002282 -0.040193 0.010355 -0.014690 25.620600 -40.985400 0.000008 0.000006 2.550550 -3.959890 -58.246600 -11.754300 -0.000006 -0.000006 -0.015135 -0.138667 -22.230900
0.000000 0.000000 0.000000 0.000000 0.000000 -0.000000 5.025220 90.613100 -512.734000 85.829800 9.929560 -3.776430 15.735700 0.000005 -0.000001 68.611800 83.905000 -66.255600 8.984550 -0.406207 -0.000000 3.691610 -4.523500 4.855140 16.377300 -0.000001 -0.000001 0.198218 -5.226820 2.771680 6.456720 -0.000001 -0.000000 1.423090 -2.339900 -1.726190 12.994200 -0.242716 4.980390 -89.723700 -0.958035 -73.911600 5.348090 -0.000007 -0.000001 -53.887200 27.519700 -25.140200 24.328600 0.000019 0.000005 3.735420 4.829940 -37.784500 22.291600 -0.000001 0.000005 9.282710 5.538340 -8.169500 12.994500 -0.242716 -4.980390 87.801700 6.099300 -70.136000 -5.348130 -0.000001 -0.000004 -61.518300 6.317240 4.680480 -24.328900 0.000322 -0.000009 1.250820 12.295900 -5.858770 -22.291500 -0.000108 -0.000004 15.540100 5.251140 1.401540 -2.192480 -6.469440 -0.000000 -169.532000 -23.887700 7.412640 39.081100 -0.000007 -0.000012 -0.038421 0.153303 14.069500 40.985400 -0.000006 -0.000013 -6.830620 -2.260320 -69.870500 11.754300 -0.000000 0.000003 -0.808753 -0.997140 -18.963600 -2.192510 6.469440 -0.000001 -173.289000 19.495900 150.255000 -39.081100 -0.002282 -0.040193 0.011005 -0.014502 27.961600 -40.985400 0.000008 0.000006 3.380590 -6.388210 -57.898300 -11.754300 -0.000006 -0.000006 -0.017287 -0.151767 -22.769100
0.000000 0.000000 0.000000 0.000000 0.000000 -0.000000 4.334760 90.128300 -510.140000 85.925900 9.980410 -3.609780 15.735700 0.000005 -0.000001 68.360800 84.096300 -65.947000 8.984550 -0.406207 -0.000000 3.315940 -4.442860 4.952960 16.377300 -0.000001 -0.000001 0.199207 -5.027420 2.587640 6.456720 -0.000001 -0.000000 1.596350 -2.072980 -1.796680 12.994200 -0.242716 4.980390 -89.806500 -0.652619 -73.477000 5.348090 -0.000007 -0.000001 -55.119100 30.624400 -23.211500 24.328600 0.000019 0.000005 5.023870 5.957080 -40.261000 22.291600 -0.000001 0.000005 7.712120 5.545600 -8.504230 12.994500 -0.242716 -4.980390 87.749000 6.186900 -69.961800 -5.348130 -0.000001 -0.000004 -63.609100 6.314580 7.003710 -24.328900 0.000322 -0.000009 1.139400 12.391300 -5.300090 -22.291500 -0.000108 -0.000004 13.992700 5.254890 1.303330 -2.192480 -6.469440 -0.000000 -168.259000 -22.319500 7.955500 39.081100 -0.000007 -0.000012 -0.042747 0.143413 16.597500 40.985400 -0.000006 -0.000013 -8.602940 -2.764870 -70.388000 11.754300 -0.000000 0.000003 -0.004323 -0.054770 -18.804900 -2.192510 6.469440 -0.000001 -173.381000 19.690600 150.056000 -39.081100 -0.002282 -0.040193 0.019602 -0.026546 31.556100 -40.985400 0.000008 0.000006 2.537230 -7.346270 -58.685100 -11.754300 -0.000006 -0.000006 -0.018066 -0.156332 -22.956800
0.000000 0.000000 0.000000 0.000000 0.000000 -0.000000 3.513960 89.782300 -507.316000 85.701800 9.481600 -2.895010 15.735700 0.000005 -0.000001 69.733900 84.123500 -67.168600 8.984550 -0.406207 -0.000000 3.365390 -4.164750 5.249340 16.377300 -0.000001 -0.000001 0.195501 -4.380730 2.385310 6.456720 -0.000001 -0.000000 1.735900 -1.563750 -2.001330 12.994200 -0.242716 4.980390 -89.932500 -0.220405 -72.956200 5.348090 -0.000007 -0.000001 -57.893500 32.442000 -19.772900 24.328600 0.000019 0.000005 6.767690 7.461720 -42.419600 22.291600 -0.000001 0.000005 6.927980 5.550610 -8.735890 12.994500 -0.242716 -4.980390 87.735300 6.343090 -70.304900 -5.348130 -0.000001 -0.000004 -66.000900 8.174690 7.619430 -24.328900 0.000322 -0.000009 0.778518 13.317800 -3.381940 -22.291500 -0.000108 -0.000004 12.650900 5.245580 1.550640 -2.192480 -6.469440 -0.000000 -166.764000 -20.062500 8.116900 39.081100 -0.000007 -0.000012 -0.040679 0.107182 20.783200 40.985400 -0.000006 -0.000013 -10.464200 -4.221120 -70.186900 11.754300 -0.000000 0.000003 -0.011745 -0.116259 -21.315900 -2.192510 6.469440 -0.000001 -173.069000 19.065200 150.897000 -39.081100 -0.002282 -0.040193 0.021909 -0.026772 34.815600 -40.985400 0.000008 0.000006 4.411900 -6.539250 -60.298300 -11.754300 -0.000006 -0.000006 -0.015132 -0.138646 -22.230000
0.000000 0.000000 0.000000 0.000000 0.000000 -0.000000 2.595200 89.677000 -504.454000 85.587800 9.034070 -2.190490 15.735700 0.000005 -0.000001 71.342600 84.180200 -68.718400 8.984550 -0.406207 -0.000000 3.361240 -3.820130 5.356450 16.377300 -0.000001 -0.000001 0.436951 -3.915610 2.382880 6.456720 -0.000001 -0.000000 1.943350 -1.179520 -2.088130 12.994200 -0.242716 4.980390 -89.923000 -0.244934 -72.541800 5.348090 -0.000007 -0.000001 -62.052700 33.476700 -15.700100 24.328600 0.000019 0.000005 7.036770 7.730360 -42.541100 22.291600 -0.000001 0.000005 7.133270 5.562100 -9.289960 12.994500 -0.242716 -4.980390 87.654200 6.626490 -70.455400 -5.348130 -0.000001 -0.000004 -68.596900 11.483700 6.632830 -24.328900 0.000322 -0.000009 0.253897 15.172900 -0.976393 -22.291500 -0.000108 -0.000004 10.716100 5.220760 2.199380 -2.192480 -6.469440 -0.000000 -165.799000 -17.352000 6.501110 39.081100 -0.000007 -0.000012 -0.011989 0.023115 27.415000 40.985400 -0.000006 -0.000013 -11.550200 -6.521980 -68.462600 11.754300 -0.000000 0.000003 -0.024764 -0.192390 -24.447400 -2.192510 6.469440 -0.000001 -172.853000 18.737800 152.977000 -39.081100 -0.002282 -0.040193 0.025689 -0.030522 36.276400 -40.985400 0.000008 0.000006 4.903220 -6.478690 -62.988600 -11.754300 -0.000006 -0.000006 -0.013706 -0.129506 -21.855000
0.000000 0.000000 0.000000 0.000000 0.000000 -0.000000 1.730820 89.896100 -501.685000 85.705000 7.993320 -1.355320 15.735700 0.000005 -0.000001 75.736900 84.284000 -73.158000 8.984550 -0.406207 -0.000000 3.388110 -2.911720 5.239180 16.377300 -0.000001 -0.000001 0.762770 -3.560020 2.387360 6.456720 -0.000001 -0.000000 2.436940 -1.048010 -2.288460 12.994200 -0.242716 4.980390 -89.922000 -0.242332 -72.160900 5.348090 -0.000007 -0.000001 -66.576300 33.707500 -11.524800 24.328600 0.000019 0.000005 6.247400 7.289230 -40.789200 22.291600 -0.000001 0.000005 6.663110 5.565240 -9.445980 12.994500 -0.242716 -4.980390 87.565700 6.886910 -70.478900 -5.348130 -0.000001 -0.000004 -70.826000 14.828800 4.841510 -24.328900 0.000322 -0.000009 0.022005 17.429900 -0.076667 -22.291500 -0.000108 -0.000004 7.952240 5.205200 2.590740 -2.192480 -6.469440 -0.000000 -165.324000 -15.532400 3.764740 39.081100 -0.000007 -0.000012 0.057072 -0.080066 35.481100 40.985400 -0.000006 -0.000013 -10.678100 -9.624940 -63.420000 11.754300 -0.000000 0.000003 -0.043160 -0.272482 -27.779400 -2.192510 6.469440 -0.000001 -172.951000 18.319100 156.188000 -39.081100 -0.002282 -0.040193 0.026809 -0.032510 35.885100 -40.985400 0.000008 0.000006 5.382340 -6.233660 -64.890000 -11.754300 -0.000006 -0.000006 -0.014226 -0.132889 -21.993800
0.000000 0.000000 0.000000 0.000000 0.000000 -0.000000 1.086200 90.354100 -499.154000 86.351200 6.122470 -0.707206 15.735700 0.000005 -0.000001 82.134400 84.390300 -79.801300 8.984550 -0.406207 -0.000000 3.386340 -1.622670 4.709380 16.377300 -0.000001 -0.000001 1.034670 -3.112180 2.352890 6.456720 -0.000001 -0.000000 3.088380 -1.102190 -2.490840 12.994200 -0.242716 4.980390 -89.859100 -0.424106 -71.619500 5.348090 -0.000007 -0.000001 -70.966700 33.293600 -7.579300 24.328600 0.000019 0.000005 5.536730 7.153360 -37.899600 22.291600 -0.000001 0.000005 5.860690 5.547930 -8.607950 12.994500 -0.242716 -4.980390 87.622100 6.878540 -70.877600 -5.348130 -0.000001 -0.000004 -72.679000 18.028400 2.534270 -24.328900 0.000322 -0.000009 0.488221 18.255700 -1.562710 -22.291500 -0.000108 -0.000004 5.796610 5.214010 2.360370 -2.192480 -6.469440 -0.000000 -166.408000 -13.520600 -0.238397 39.081100 -0.000007 -0.000012 0.148450 -0.153706 44.003000 40.985400 -0.000006 -0.000013 -7.035760 -14.114700 -55.225900 11.754300 -0.000000 0.000003 -0.037276 -0.249076 -26.801000 -2.192510 6.469440 -0.000001 -173.756000 17.554900 159.773000 -39.081100 -0.002282 -0.040193 0.024633 -0.031261 34.319200 -40.985400 0.000008 0.000006 5.420700 -5.372210 -66.186700 -11.754300 -0.000006 -0.000006 -0.013839 -0.130379 -21.890800
0.000000 0.000000 0.000000 0.000000 0.000000 -0.000000 0.666685 90.767100 -496.947000 86.901000 4.489160 -0.192829 15.735700 0.000005 -0.000001 87.994000 84.345000 -85.853300 8.984550 -0.406207 -0.000000 3.549640 -0.474081 4.291480 16.377300 -0.000001 -0.000001 1.049580 -2.785300 2.381620 6.456720 -0.000001 -0.000000 3.498260 -1.440080 -2.665130 12.994200 -0.242716 4.980390 -89.778700 -0.650891 -71.221000 5.348090 -0.000007 -0.000001 -74.554000 32.562100 -4.259030 24.328600 0.000019 0.000005 5.501920 7.997130 -34.698300 22.291600 -0.000001 0.000005 5.292860 5.528210 -7.711560 12.994500 -0.242716 -4.980390 87.740500 6.793650 -71.554000 -5.348130 -0.000001 -0.000004 -73.477400 21.909600 -0.330743 -24.328900 0.000322 -0.000009 1.438060 15.432600 -5.403730 -22.291500 -0.000108 -0.000004 5.070520 5.258100 1.217950 -2.192480 -6.469440 -0.000000 -168.305000 -12.300300 -5.260470 39.081100 -0.000007 -0.000012 0.168639 -0.131696 52.011900 40.985400 -0.000006 -0.000013 4.421370 -16.953800 -44.804500 11.754300 -0.000000 0.000003 -0.008060 -0.088533 -20.182000 -2.192510 6.469440 -0.000001 -174.587000 16.516900 163.060000 -39.081100 -0.002282 -0.040193 0.024495 -0.033300 32.481000 -40.985400 0.000008 0.000006 5.206610 -4.848770 -67.005100 -11.754300 -0.000006 -0.000006 -0.013399 -0.127488 -21.772300
